<svg width="20" height="20" viewBox="0 0 20 20" fill="none" xmlns="http://www.w3.org/2000/svg">
<path fill-rule="evenodd" clip-rule="evenodd" d="M8.91731 0.0120609C8.80981 0.0253445 8.44959 0.0869066 8.11679 0.148859C7.78405 0.210812 7.24372 0.34828 6.91606 0.454382C6.58845 0.560483 5.96854 0.822861 5.53851 1.03746C5.10848 1.25207 4.5199 1.59733 4.23055 1.80473C3.94121 2.01213 3.44209 2.43207 3.12136 2.73782C2.80068 3.04362 2.38093 3.49571 2.18859 3.74246C1.99625 3.98926 1.72175 4.3727 1.5785 4.59461C1.43531 4.81647 1.19539 5.24344 1.04543 5.54344C0.895427 5.84338 0.672538 6.37958 0.550175 6.73506C0.427757 7.09048 0.276074 7.64303 0.213077 7.96295C0.150081 8.28282 0.085353 8.68272 0.0692688 8.85155C0.0531846 9.02039 0.0256516 9.3469 0.00811536 9.57713C-0.00942089 9.80736 0.00241887 10.3174 0.0344197 10.7106C0.0663648 11.1038 0.14444 11.6815 0.207828 11.9943C0.271215 12.3072 0.410332 12.8269 0.517058 13.1492C0.623727 13.4715 0.846337 14.0115 1.01165 14.3492C1.17696 14.6868 1.4882 15.2268 1.70327 15.5492C1.91834 15.8715 2.29375 16.3624 2.53752 16.64C2.78136 16.9177 3.21703 17.343 3.5057 17.5851C3.79444 17.8272 4.2568 18.1741 4.53325 18.356C4.8097 18.538 5.33746 18.8325 5.70606 19.0107C6.07465 19.1889 6.62755 19.4142 6.93471 19.5115C7.24187 19.6088 7.71937 19.7357 7.99582 19.7935C8.27227 19.8512 8.80003 19.9272 9.16863 19.9623C9.54705 19.9983 10.1184 20.0105 10.4811 19.9903C10.8343 19.9706 11.3495 19.9182 11.6259 19.8737C11.9024 19.8293 12.3631 19.7296 12.6497 19.6522C12.9364 19.5749 13.4265 19.4114 13.7388 19.2889C14.0511 19.1664 14.5605 18.9263 14.8708 18.7554C15.1811 18.5845 15.7001 18.2456 16.0242 18.0024C16.3484 17.7591 16.8412 17.3326 17.1195 17.0545C17.3978 16.7764 17.8023 16.3137 18.0186 16.0262C18.2348 15.7387 18.5403 15.285 18.6976 15.018C18.8548 14.751 19.078 14.3148 19.1935 14.0486C19.309 13.7825 19.4807 13.3238 19.5751 13.0293C19.6695 12.7348 19.8038 12.2332 19.8734 11.9146C19.9858 11.4004 20 11.1814 20 9.96782C20 8.75237 19.9858 8.53526 19.8725 8.01435C19.8024 7.69203 19.6538 7.15204 19.5423 6.81437C19.4307 6.4767 19.1731 5.87095 18.9698 5.46832C18.7665 5.06568 18.4186 4.4821 18.1967 4.17155C17.9748 3.86095 17.5746 3.37716 17.3073 3.09647C17.0401 2.81573 16.6424 2.44 16.4238 2.26139C16.2051 2.08285 15.8152 1.79496 15.5574 1.62172C15.2995 1.44847 14.7869 1.15992 14.4183 0.980534C14.0497 0.801094 13.5153 0.576055 13.2307 0.480391C12.9461 0.384727 12.4183 0.242905 12.0579 0.165269C11.503 0.0456605 11.2271 0.0212701 10.2577 0.00597726C9.62798 -0.00395751 9.02482 -0.00122266 8.91731 0.0120609ZM11.7754 0.506176C12.0465 0.552948 12.2934 0.59118 12.324 0.59118C12.3548 0.59118 12.3799 0.610045 12.3799 0.633152C12.3799 0.656203 12.2644 0.736295 12.1234 0.811085C11.9824 0.885875 11.8033 1.03038 11.7256 1.13223C11.6455 1.23716 11.5725 1.4209 11.5573 1.55603C11.5407 1.70309 11.5637 1.87411 11.6172 2.00214C11.6882 2.17181 11.7326 2.20971 11.8604 2.20954C11.9465 2.20943 12.0988 2.15942 12.1989 2.09842C12.299 2.03742 12.4325 1.9057 12.4957 1.80562C12.5908 1.6547 12.6056 1.562 12.5825 1.26094C12.5671 1.06141 12.5379 0.843345 12.5175 0.776369C12.4805 0.654528 12.4805 0.654528 12.8614 0.768722C13.0709 0.831568 13.507 0.995325 13.8303 1.13268C14.1537 1.27004 14.4396 1.40271 14.4656 1.42749C14.4916 1.45227 14.4127 1.48944 14.2905 1.51009C14.1682 1.53074 14.0153 1.59688 13.9507 1.65699C13.8862 1.71716 13.8182 1.82644 13.7998 1.89995C13.7813 1.9734 13.7749 2.07944 13.7856 2.13559C13.7993 2.20765 13.8635 2.24259 14.0043 2.25442C14.1346 2.26536 14.2474 2.23572 14.3302 2.16869C14.4077 2.10595 14.4825 1.95236 14.523 1.7728L14.5891 1.47939L15.0859 1.79111C15.3591 1.96251 15.6806 2.17472 15.8002 2.26262C16.0177 2.42247 16.0177 2.42247 15.8323 2.46249C15.7304 2.48448 15.5533 2.54989 15.4387 2.60783C15.3241 2.66576 15.1894 2.79246 15.1393 2.88935C15.0799 3.0041 15.0573 3.14676 15.0745 3.29885C15.0962 3.49119 15.0802 3.54594 14.9834 3.61051C14.9188 3.6536 14.8364 3.7078 14.8002 3.73096C14.7505 3.76277 14.7478 3.72437 14.7892 3.57468C14.8264 3.43984 14.8246 3.31749 14.7835 3.19292C14.7502 3.09206 14.6544 2.94539 14.5706 2.86697C14.4869 2.78855 14.3129 2.67157 14.184 2.60699C14.0488 2.53934 13.9358 2.51216 13.9169 2.54281C13.8988 2.572 13.8705 2.75389 13.854 2.94701C13.8301 3.22618 13.8456 3.33815 13.9298 3.49347C13.9912 3.60677 14.1302 3.73743 14.2608 3.80463L14.486 3.92039L14.1729 4.04078C14.0008 4.10703 13.7867 4.17797 13.6973 4.19845C13.5358 4.2354 13.5353 4.23479 13.6275 4.10329C13.6785 4.03051 13.7197 3.89494 13.719 3.80195C13.7183 3.70902 13.6693 3.52629 13.61 3.3958C13.5508 3.26536 13.4887 3.15859 13.472 3.15859C13.4553 3.15859 13.3662 3.26285 13.2738 3.39022C13.1517 3.55861 13.1059 3.68475 13.1059 3.85224C13.1059 3.97894 13.1432 4.13583 13.1888 4.20091C13.2676 4.31337 13.2607 4.32364 13.0482 4.40865C12.9251 4.45782 12.7245 4.56118 12.6022 4.63832C12.4006 4.76552 12.3799 4.76909 12.3799 4.67638C12.3799 4.62018 12.4204 4.43778 12.4698 4.27107C12.5193 4.10429 12.6085 3.87217 12.6682 3.75518C12.7278 3.6382 12.9313 3.32425 13.1203 3.05752C13.3094 2.79078 13.4965 2.53934 13.5363 2.49882C13.576 2.45825 13.6085 2.31576 13.6085 2.18214C13.6085 2.0046 13.5711 1.8947 13.4691 1.7737C13.3925 1.68261 13.226 1.56663 13.0991 1.5159C12.9723 1.46522 12.8529 1.43943 12.8336 1.45858C12.8144 1.47778 12.7987 1.65671 12.7987 1.85619C12.7987 2.19531 12.8106 2.22952 12.9811 2.38178C13.0814 2.47136 13.2134 2.54465 13.2743 2.54465C13.3353 2.54465 13.3842 2.56346 13.383 2.58651C13.3818 2.60956 13.2693 2.75395 13.1328 2.90743C12.8988 3.17082 12.8847 3.1783 12.8837 3.04055C12.883 2.96029 12.828 2.82539 12.7614 2.74078C12.6949 2.65616 12.5574 2.55229 12.4561 2.50999C12.3547 2.46762 12.2082 2.43302 12.1304 2.43302C12.0202 2.43302 11.9889 2.46126 11.9889 2.56072C11.9889 2.63099 12.0455 2.8005 12.1146 2.93746C12.2211 3.14844 12.2819 3.20029 12.5123 3.27669C12.6674 3.3281 12.757 3.38386 12.7206 3.40629C12.6855 3.42795 12.5822 3.57574 12.491 3.7347C12.3997 3.89366 12.3249 3.99328 12.3245 3.95611C12.3243 3.91894 12.269 3.83728 12.2018 3.77472C12.1139 3.69289 12.0041 3.66091 11.8108 3.66091C11.6631 3.66091 11.5423 3.67978 11.5424 3.70277C11.5425 3.72577 11.592 3.82556 11.6524 3.92452C11.7127 4.02348 11.8262 4.12048 11.9045 4.14013C11.9828 4.15977 12.1032 4.16508 12.172 4.15196C12.2972 4.12802 12.2972 4.12802 12.1766 4.60611C12.0955 4.92776 11.9877 5.18467 11.8472 5.39118C11.7324 5.55996 11.5623 5.85901 11.4693 6.05564C11.3001 6.41318 11.3001 6.41318 11.2347 6.19517C11.1987 6.07529 11.0898 5.82089 10.9927 5.62995C10.8956 5.43896 10.8161 5.27135 10.8161 5.25745C10.8161 5.24361 10.8929 5.27051 10.9868 5.31734C11.0928 5.37014 11.2253 5.38968 11.3364 5.3688C11.4349 5.35038 11.5841 5.27169 11.6679 5.19399C11.7518 5.11625 11.8593 4.97738 11.907 4.8854C11.9545 4.79337 11.9793 4.69513 11.962 4.66712C11.9447 4.6391 11.8199 4.59964 11.6847 4.57932C11.5413 4.55789 11.3557 4.56995 11.2394 4.60829C11.1297 4.64451 11.0021 4.72801 10.9559 4.79387C10.9097 4.85973 10.872 4.88864 10.872 4.85811C10.872 4.82752 10.9462 4.61008 11.0368 4.37477C11.1274 4.13951 11.265 3.8221 11.3424 3.6694C11.4199 3.51669 11.5341 3.20793 11.5964 2.98328C11.6587 2.75864 11.7088 2.54917 11.7076 2.51786C11.7064 2.48655 11.6278 2.66186 11.533 2.90743C11.4381 3.15301 11.3385 3.37777 11.3117 3.40696C11.2831 3.43805 11.2613 3.36868 11.259 3.23952C11.2568 3.11824 11.2362 2.97078 11.2131 2.91184C11.186 2.84291 11.2106 2.73235 11.2817 2.60247C11.356 2.46712 11.3804 2.35187 11.3557 2.25358C11.3354 2.17282 11.2537 2.02943 11.1742 1.935C11.0947 1.84056 11.0054 1.76326 10.9759 1.76326C10.9463 1.76326 10.8857 1.85038 10.8412 1.95682C10.7967 2.06326 10.7603 2.22986 10.7603 2.32697C10.7603 2.45646 10.8124 2.55268 10.9558 2.68781C11.1362 2.85787 11.1511 2.897 11.1496 3.19671C11.1482 3.45496 11.1356 3.50034 11.088 3.41846C11.0551 3.36187 10.9435 3.28027 10.8402 3.23707C10.7368 3.19392 10.6104 3.15859 10.5592 3.15859C10.4822 3.15859 10.4718 3.19906 10.4981 3.39569C10.5197 3.55621 10.5772 3.67342 10.6762 3.75848C10.7566 3.82763 10.8712 3.88417 10.931 3.88417C10.9907 3.88417 11.0395 3.90035 11.0395 3.92011C11.0395 3.93992 10.9232 4.20978 10.781 4.51977C10.5782 4.96187 10.5233 5.14376 10.5263 5.36289C10.5286 5.52407 10.5886 5.78411 10.6681 5.9775C10.7439 6.16185 10.8228 6.40269 10.8435 6.51264C10.8682 6.64447 10.852 6.77747 10.7958 6.903C10.7489 7.00776 10.6652 7.14367 10.6097 7.20506C10.5543 7.26646 10.4254 7.38573 10.3232 7.47017C10.221 7.55456 10.0787 7.62366 10.007 7.62366C9.92961 7.62366 9.81708 7.55295 9.73007 7.44952C9.64942 7.35375 9.54923 7.20936 9.50746 7.1286C9.4315 6.98181 9.4315 6.98181 9.70086 6.98181C9.8856 6.98181 10.0186 6.94575 10.1241 6.867C10.2087 6.80387 10.3231 6.66523 10.3783 6.55885C10.4335 6.45253 10.4956 6.28113 10.5162 6.17798C10.5538 5.99045 10.5538 5.99045 10.2242 6.01501C10.043 6.02852 9.81926 6.07579 9.72711 6.11999C9.62943 6.16688 9.50997 6.2986 9.44066 6.43579L9.32171 6.67115L9.24598 6.40788C9.20431 6.2631 9.16986 6.03159 9.16941 5.89345C9.16885 5.71038 9.21331 5.57168 9.33349 5.38192C9.48685 5.13958 9.50617 5.12696 9.61117 5.20052C9.67327 5.24395 9.80675 5.2795 9.90789 5.2795C10.0385 5.2795 10.1507 5.22547 10.2952 5.09314C10.4072 4.99061 10.4828 4.88105 10.4634 4.84963C10.444 4.8182 10.3163 4.76122 10.1798 4.72299C10.0432 4.68481 9.90102 4.67225 9.86388 4.69519C9.82674 4.71813 9.80697 4.71456 9.81993 4.68727C9.83288 4.65997 9.93726 4.44771 10.0518 4.21559C10.1664 3.9834 10.2842 3.64557 10.3137 3.46473C10.3441 3.27748 10.3496 2.84643 10.3264 2.46355C10.291 1.88047 10.2819 1.83565 10.2577 2.12605C10.2297 2.46093 10.2297 2.46093 10.146 2.29555C10.0999 2.20463 9.97423 2.07068 9.86673 1.99784C9.69494 1.88153 9.61938 1.8678 9.24291 1.88438C9.00728 1.89476 8.79824 1.91948 8.77836 1.9393C8.75854 1.95917 8.80444 2.09719 8.88045 2.2461C8.95641 2.39496 9.0958 2.58997 9.19013 2.67949C9.32444 2.80697 9.42676 2.8476 9.66199 2.86714C9.83802 2.8817 10.0144 2.86418 10.0881 2.82483C10.2129 2.75808 10.2134 2.75964 10.1769 3.05579C10.1566 3.21977 10.1259 3.42733 10.1085 3.51708C10.077 3.68023 10.077 3.68023 10.0074 3.51708C9.96915 3.42733 9.88734 3.30895 9.82557 3.25403C9.76386 3.19906 9.58375 3.13365 9.42536 3.10858C9.26692 3.08358 9.12624 3.08101 9.11272 3.10289C9.09915 3.12477 9.11211 3.22791 9.14149 3.33206C9.17086 3.43615 9.22576 3.58004 9.26357 3.6517C9.30132 3.72342 9.40096 3.81758 9.48501 3.861C9.56906 3.90443 9.70443 3.93998 9.78586 3.93998C9.93391 3.93998 9.93391 3.93998 9.80261 4.15899C9.73035 4.27949 9.54577 4.5369 9.39247 4.73108L9.11362 5.08415L9.07598 4.63592C9.05252 4.3564 8.98221 4.04753 8.88917 3.81529C8.80712 3.61046 8.60462 3.23729 8.4392 2.98602C8.27378 2.73475 8.1518 2.50753 8.16817 2.48108C8.18453 2.45462 8.22971 2.43302 8.26864 2.43302C8.30751 2.43302 8.39463 2.37425 8.46215 2.30242C8.52967 2.23059 8.60674 2.09563 8.63349 2.00242C8.66147 1.90503 8.66069 1.71844 8.63165 1.56323C8.60395 1.41487 8.55877 1.27099 8.53135 1.24358C8.50203 1.21428 8.3953 1.25218 8.27283 1.3354C8.15806 1.41331 8.01755 1.54771 7.96053 1.63411C7.90356 1.72051 7.85598 1.87907 7.85481 1.98651C7.85268 2.18186 7.85268 2.18186 7.7187 2.02977C7.60086 1.89604 7.58858 1.84056 7.61661 1.56931C7.64755 1.26931 7.64281 1.25564 7.4412 1.06559C7.32721 0.958153 7.19301 0.870247 7.14297 0.870247C7.08617 0.870247 7.07193 0.850824 7.10505 0.818508C7.13426 0.790043 7.36619 0.713969 7.62052 0.649449C7.87485 0.584929 8.32722 0.495349 8.62579 0.450363C8.92435 0.405378 9.20007 0.368429 9.23844 0.368262C9.28529 0.368038 9.30864 0.464205 9.30948 0.660947C9.31015 0.827159 9.35661 1.05504 9.41676 1.18749C9.48283 1.33283 9.5905 1.45595 9.70203 1.51355C9.80703 1.5678 9.96787 1.59789 10.0906 1.58622C10.25 1.57104 10.293 1.58443 10.2707 1.64248C10.2545 1.6844 10.2765 1.74093 10.3193 1.76806C10.3622 1.79519 10.4746 1.81773 10.5691 1.81824C10.6769 1.81874 10.7835 1.7723 10.8553 1.69349C10.9182 1.6244 10.998 1.51305 11.0326 1.44602C11.0671 1.37893 11.0954 1.30989 11.0954 1.29253C11.0954 1.27517 10.9707 1.26094 10.8183 1.26094C10.6032 1.26094 10.5149 1.28901 10.4233 1.38652C10.3054 1.5121 10.3054 1.5121 10.3427 1.36157C10.3632 1.2788 10.3508 1.12263 10.3151 1.01458C10.2794 0.906526 10.1735 0.753597 10.0797 0.674733C9.98596 0.595868 9.79351 0.500874 9.65205 0.463591C9.39487 0.395833 9.39487 0.395833 9.78435 0.367927C9.99858 0.352578 10.4233 0.358271 10.7282 0.380596C11.0331 0.402922 11.5043 0.459405 11.7754 0.506176ZM6.92879 1.13536C6.90673 1.33975 6.92594 1.44138 7.01262 1.57902C7.08723 1.69746 7.19647 1.77744 7.33704 1.81656C7.49732 1.86116 7.59171 1.94013 7.7239 2.14034C7.82012 2.28595 7.93863 2.46846 7.98733 2.54593C8.07585 2.68675 8.07585 2.68675 7.85615 2.66582C7.70027 2.65097 7.5792 2.68027 7.43919 2.76678C7.33067 2.83382 7.24187 2.90967 7.24187 2.93534C7.24187 2.96101 7.3333 3.03854 7.44505 3.10752C7.55675 3.17657 7.72083 3.23299 7.80968 3.23299C7.89848 3.23299 8.04156 3.18097 8.12768 3.11735C8.28422 3.0017 8.28422 3.0017 8.46115 3.36025C8.55843 3.55749 8.63807 3.73157 8.63807 3.74715C8.63807 3.76266 8.56391 3.7371 8.47332 3.69027C8.38268 3.64344 8.23591 3.6051 8.14711 3.6051C8.05837 3.6051 7.829 3.68335 7.6375 3.77901C7.28923 3.95293 7.28923 3.95293 7.44706 4.11903C7.53385 4.21034 7.70357 4.33581 7.82414 4.39776C7.98292 4.4793 8.1107 4.50286 8.28718 4.48293C8.42121 4.46786 8.57826 4.41266 8.63617 4.36031C8.73759 4.26861 8.7429 4.27458 8.78015 4.52306C8.80148 4.66494 8.80193 5.11295 8.78127 5.51866C8.74954 6.14092 8.75988 6.31874 8.84733 6.65619L8.95099 7.05621L8.6689 6.91505C8.5137 6.83747 8.30304 6.71117 8.20078 6.63443C8.01481 6.49489 8.01481 6.49489 8.18409 6.39197C8.27724 6.33538 8.39491 6.20885 8.44568 6.11073C8.50845 5.98945 8.52716 5.86476 8.50409 5.72087C8.4855 5.6045 8.4454 5.44398 8.41502 5.36417C8.35984 5.219 8.35984 5.219 8.15616 5.3573C8.04413 5.43338 7.90585 5.56627 7.84883 5.65267C7.79186 5.73907 7.74311 5.91019 7.74048 6.03298C7.73568 6.25623 7.73568 6.25623 7.60204 5.97717C7.52854 5.82368 7.39037 5.35903 7.2951 4.94462C7.19977 4.53021 7.07293 4.04044 7.01329 3.85626C6.95359 3.67208 6.83201 3.38955 6.7431 3.22836C6.5822 2.93674 6.58203 2.93534 6.70568 2.93534C6.77398 2.93534 6.8864 2.88271 6.95554 2.81836C7.02463 2.754 7.10572 2.63691 7.13565 2.55815C7.16564 2.47935 7.17374 2.30565 7.15375 2.17209C7.1337 2.03859 7.09818 1.91753 7.07489 1.90313C7.05154 1.88873 6.93008 1.95102 6.80498 2.0416C6.67988 2.13219 6.55109 2.25565 6.51876 2.31598C6.48642 2.37631 6.46 2.50385 6.46 2.5994C6.46 2.77309 6.46 2.77309 6.32211 2.67285C6.20886 2.59047 6.18395 2.52428 6.18249 2.30186C6.18104 2.0709 6.15357 2.00398 5.99529 1.84581C5.88516 1.73574 5.72633 1.64477 5.60436 1.62194C5.49132 1.60073 5.39979 1.56736 5.4009 1.54776C5.40196 1.52812 5.55906 1.43843 5.74995 1.3484C5.94084 1.25837 6.26035 1.11571 6.46 1.03144C6.65966 0.947102 6.85323 0.87633 6.8902 0.874154C6.93739 0.871419 6.9489 0.949055 6.92879 1.13536ZM5.25369 1.92836C5.2767 2.10154 5.34271 2.26714 5.43028 2.37112C5.50718 2.46243 5.65685 2.5658 5.76285 2.6008C5.86885 2.63573 6.00423 2.64896 6.06359 2.6301C6.14301 2.60493 6.20751 2.64444 6.30754 2.77957C6.38232 2.88059 6.46023 2.99294 6.48061 3.02922C6.50446 3.07158 6.45805 3.06539 6.35082 3.01197C6.19808 2.93579 6.16189 2.93847 5.92409 3.04356C5.69891 3.14313 5.674 3.17009 5.73694 3.24589C5.77693 3.29405 5.8793 3.3694 5.96452 3.41344C6.04969 3.45747 6.18344 3.49347 6.26174 3.49347C6.3401 3.49347 6.45308 3.44458 6.51295 3.38475C6.62073 3.27703 6.62269 3.2787 6.73226 3.57133C6.79302 3.73369 6.88233 4.05786 6.93063 4.2916C6.97894 4.52541 7.01848 4.73074 7.01848 4.74799C7.01848 4.76518 6.8549 4.606 6.65502 4.39419C6.41354 4.1384 6.16513 3.94316 5.91504 3.81256C5.70796 3.70445 5.43173 3.58445 5.30116 3.54588C5.17059 3.50737 5.06381 3.47109 5.06381 3.46529C5.06381 3.45954 5.1039 3.37442 5.15299 3.27619C5.20745 3.16708 5.228 3.04127 5.20583 2.95298C5.18589 2.8735 5.10508 2.72398 5.02628 2.62072C4.94747 2.51747 4.85136 2.43302 4.81266 2.43302C4.77395 2.43302 4.70839 2.51462 4.66701 2.61441C4.62562 2.71421 4.59172 2.88399 4.59172 2.99177C4.59167 3.10027 4.64087 3.2532 4.70208 3.33457C4.76915 3.42382 4.93301 3.52065 5.11965 3.58138C5.42682 3.68134 5.42682 3.68134 5.22029 3.71768C5.10675 3.73766 4.97294 3.78789 4.92301 3.8293C4.87308 3.87072 4.78702 3.99418 4.73179 4.10368C4.67656 4.21319 4.61389 4.35931 4.5925 4.42835C4.5557 4.54723 4.56882 4.55393 4.83846 4.55393C4.99506 4.55393 5.2084 4.51837 5.31244 4.47495C5.41649 4.43147 5.5331 4.33732 5.57163 4.26565C5.61017 4.19399 5.65618 4.0655 5.67389 3.98022C5.70606 3.82512 5.70606 3.82512 5.97078 4.00813C6.11637 4.10876 6.23577 4.21001 6.23605 4.233C6.23639 4.256 6.20684 4.27486 6.17038 4.27486C6.13396 4.27486 6.046 4.32945 5.97491 4.3962C5.87466 4.49041 5.84568 4.57759 5.84568 4.78555C5.84568 5.05346 5.84568 5.05346 5.99926 4.99535C6.08376 4.96337 6.20941 4.88423 6.2785 4.81954C6.34764 4.75486 6.40416 4.64044 6.40416 4.56526C6.40416 4.44872 6.41678 4.43906 6.48994 4.49979C6.53719 4.53897 6.66122 4.7241 6.76566 4.9113C6.87009 5.09844 7.04071 5.45397 7.14487 5.70128C7.24897 5.94865 7.43896 6.29279 7.56708 6.46615C7.69519 6.63945 8.03257 6.96791 8.31678 7.19607C8.60099 7.42424 8.97573 7.75823 9.14953 7.93822C9.32327 8.11822 9.53063 8.36319 9.61027 8.48263C9.70354 8.6225 9.75503 8.77632 9.75503 8.91518C9.75503 9.03378 9.72761 9.13062 9.69399 9.13062C9.66042 9.13062 9.48707 8.99879 9.30875 8.8376C9.13037 8.67647 8.73195 8.40962 8.42334 8.2447C8.11472 8.07982 7.72892 7.82347 7.56602 7.67518C7.3844 7.5098 7.30426 7.40448 7.35888 7.40292C7.40785 7.40152 7.49291 7.35079 7.54781 7.29018C7.62432 7.20567 7.64091 7.12022 7.61885 6.9246C7.60304 6.78417 7.57668 6.65597 7.56038 6.63967C7.54407 6.62332 7.4785 6.63789 7.41478 6.67199C7.35106 6.70603 7.25908 6.81085 7.21049 6.90479C7.1619 6.99872 7.13571 7.11101 7.15229 7.15427C7.16894 7.19758 7.15816 7.23297 7.12845 7.23297C7.09868 7.23297 7.07433 7.21109 7.07433 7.1843C7.07433 7.15756 6.91098 6.91667 6.71132 6.64905C6.51166 6.38142 6.34831 6.15214 6.34831 6.13958C6.34831 6.12697 6.38712 6.1167 6.43459 6.1167C6.48206 6.1167 6.58259 6.05503 6.65798 5.97968C6.76672 5.87107 6.79509 5.78539 6.79509 5.56566C6.79509 5.41329 6.78007 5.24953 6.76175 5.20175C6.73159 5.12317 6.71193 5.12328 6.55802 5.20287C6.46436 5.25126 6.32859 5.34994 6.25633 5.42216C6.17585 5.50259 6.12492 5.6194 6.12492 5.7235C6.12492 5.81698 6.10185 5.89345 6.0737 5.89345C6.04556 5.89345 6.01417 5.87419 6.00389 5.85064C5.99367 5.82709 5.8722 5.71702 5.73398 5.60606C5.59576 5.49511 5.35304 5.33933 5.1946 5.25985C5.03616 5.18038 4.74715 5.07243 4.55235 5.01991C4.35755 4.96739 4.19034 4.91906 4.18079 4.91253C4.1713 4.906 4.22782 4.83634 4.30645 4.75776C4.38643 4.67783 4.44948 4.55097 4.44948 4.46998C4.44948 4.39028 4.41111 4.25103 4.36425 4.16044C4.3174 4.06991 4.25898 3.99579 4.23441 3.99579C4.20983 3.99579 4.13064 4.05858 4.05849 4.13538C3.97723 4.22178 3.92685 4.34396 3.92613 4.45631C3.92551 4.55605 3.94612 4.68408 3.97192 4.74085C4.01403 4.83338 4.00705 4.83668 3.90429 4.77255C3.81672 4.71791 3.79053 4.64501 3.79332 4.46362C3.79533 4.32984 3.75601 4.1639 3.70324 4.08342C3.65169 4.00484 3.5262 3.90577 3.42428 3.86318C3.32241 3.82065 3.18463 3.76858 3.11823 3.74754C3.00782 3.71249 2.99743 3.72884 2.99743 3.93803C2.99743 4.06383 3.03245 4.25064 3.07528 4.35306C3.11812 4.45553 3.21166 4.58027 3.28321 4.63034C3.35469 4.6804 3.47102 4.72137 3.54161 4.72137C3.61221 4.72137 3.76456 4.78388 3.88005 4.86029C3.9956 4.93669 4.2491 5.06149 4.44333 5.13757C4.63757 5.21364 4.90888 5.34168 5.04621 5.42216C5.1836 5.50259 5.2877 5.57671 5.27754 5.58681C5.26743 5.59697 5.12094 5.56666 4.95205 5.51955C4.78311 5.47245 4.41496 5.43059 4.13388 5.42646C3.66666 5.41965 3.62728 5.41072 3.67481 5.32186C3.71067 5.25489 3.6981 5.16916 3.63443 5.04615C3.54547 4.87418 3.53904 4.87156 3.46097 4.97588C3.41009 5.0438 3.3896 5.16012 3.40602 5.28804C3.43081 5.48182 3.42338 5.49299 3.25668 5.51241C3.0812 5.53289 3.0812 5.53289 3.0812 5.26052C3.0812 5.02304 3.05859 4.96935 2.9045 4.84081C2.80733 4.75977 2.65291 4.66527 2.56143 4.63078C2.39818 4.56933 2.3945 4.57195 2.36244 4.77244C2.34446 4.88484 2.35585 5.07132 2.38774 5.18685C2.42566 5.32393 2.50441 5.43254 2.61454 5.49946C2.7273 5.568 2.75857 5.61198 2.70881 5.63207C2.66793 5.64865 2.76008 5.64977 2.91366 5.63464C3.13297 5.61304 3.17196 5.62046 3.09517 5.66936C3.04138 5.70357 2.95677 5.81012 2.90707 5.90617C2.84335 6.02935 2.82603 6.15957 2.84832 6.34782C2.86574 6.49467 2.91355 6.67891 2.9546 6.75721C3.02927 6.89959 3.02927 6.89959 3.25841 6.73115C3.38446 6.63856 3.53084 6.47162 3.58367 6.36027C3.64616 6.22877 3.66872 6.08952 3.64817 5.96288C3.6308 5.85566 3.57389 5.72087 3.52173 5.66327C3.43003 5.56203 3.43746 5.55857 3.74507 5.55857C3.9201 5.55857 4.2558 5.59831 4.49114 5.64692C4.72654 5.69548 5.0781 5.80727 5.27245 5.89534C5.50065 5.99877 5.7399 6.17011 5.94805 6.37914C6.12525 6.55712 6.35121 6.82112 6.45017 6.96584L6.63012 7.22895L6.39148 7.14328C6.26024 7.09617 5.96843 7.02171 5.74303 6.97784C5.51763 6.93398 5.2466 6.89809 5.14071 6.89809C4.96769 6.89809 4.95401 6.88715 5.006 6.79014C5.03778 6.73076 5.06381 6.60189 5.06381 6.50371C5.06381 6.37093 5.01209 6.27644 4.86175 6.13478C4.75061 6.03002 4.63238 5.95345 4.59904 5.96455C4.5657 5.97566 4.51644 6.06932 4.48963 6.17268C4.46288 6.27605 4.4564 6.44315 4.47534 6.54401C4.49427 6.64492 4.56464 6.76581 4.63165 6.81275C4.75011 6.89569 4.74726 6.89831 4.53174 6.90512C4.37721 6.90998 4.44557 6.93146 4.75664 6.97584C5.15903 7.03321 5.19108 7.04649 5.07905 7.10962C5.01064 7.14819 4.92653 7.23224 4.89218 7.29643C4.85488 7.36614 4.84443 7.51175 4.86633 7.65765C4.90302 7.90211 4.90302 7.90211 5.05336 7.82442C5.13602 7.78167 5.25039 7.69516 5.30741 7.63214C5.38298 7.5487 5.40526 7.45577 5.3894 7.28984C5.36773 7.06262 5.36812 7.06218 5.53689 7.09634C5.62994 7.11515 5.86556 7.20367 6.06052 7.29302C6.25549 7.38232 6.5068 7.52761 6.619 7.61585C6.7312 7.70409 6.93611 7.8353 7.07433 7.90747C7.27913 8.01441 7.30364 8.04215 7.20691 8.05739C7.14163 8.06771 7.03217 8.13569 6.96375 8.20853C6.89528 8.28136 6.85591 8.36793 6.87629 8.40092C6.89668 8.4339 7.01184 8.46086 7.13219 8.46086C7.3037 8.46086 7.37066 8.43083 7.44203 8.322C7.53312 8.18308 7.53312 8.18308 7.8743 8.41967C8.06195 8.54977 8.38257 8.81946 8.58675 9.01899C8.79098 9.21853 9.02426 9.51283 9.10524 9.67296C9.18616 9.83309 9.2524 10.0277 9.2524 10.1055C9.2524 10.1857 9.22034 10.2469 9.17846 10.2469C9.13774 10.2469 8.943 10.1066 8.74564 9.93506C8.54821 9.76354 8.2234 9.49955 8.02375 9.3484C7.82409 9.19726 7.40942 8.94856 7.10225 8.79563C6.79509 8.64276 6.34272 8.46449 6.09699 8.39958C5.84623 8.33327 5.38957 8.26886 5.0561 8.25262C4.46199 8.22377 4.46199 8.22377 4.48852 8.02139C4.51102 7.85021 4.48879 7.794 4.34454 7.65687C4.17404 7.49479 4.17404 7.49479 4.11629 7.6466C4.08451 7.73004 4.05854 7.84697 4.05854 7.90636C4.05854 7.96574 4.10791 8.06369 4.16823 8.12397C4.22849 8.18419 4.25993 8.24414 4.23804 8.25714C4.21609 8.27015 4.01738 8.29855 3.79639 8.32032C3.49945 8.34962 3.27673 8.3345 2.94292 8.26239C2.49123 8.16488 2.49123 8.16488 2.60058 8.04773C2.66072 7.98332 2.72651 7.86371 2.74684 7.78189C2.77013 7.68801 2.74846 7.55869 2.68803 7.43155C2.63543 7.32065 2.52971 7.18073 2.45325 7.12056C2.37674 7.06045 2.29235 7.02467 2.26571 7.04114C2.23913 7.05755 2.18283 7.1891 2.14067 7.33337C2.09001 7.50684 2.08024 7.65246 2.11191 7.76297C2.13827 7.85495 2.21634 7.97662 2.28543 8.03327C2.39762 8.12537 2.39908 8.13218 2.29933 8.09696C2.2379 8.07525 2.14363 8.04488 2.0899 8.02942C2.03618 8.01396 1.99217 7.9524 1.99217 7.89257C1.99217 7.83274 1.96631 7.73545 1.93465 7.6764C1.90304 7.6173 1.80374 7.53107 1.71405 7.48468C1.62435 7.43836 1.47803 7.40041 1.38896 7.40041C1.29988 7.40041 1.1478 7.42798 1.05108 7.46169C0.954347 7.4954 0.87521 7.53637 0.87521 7.55278C0.87521 7.56919 0.92754 7.66719 0.991486 7.77062C1.05543 7.87404 1.16154 7.99627 1.22733 8.04232C1.29306 8.08831 1.44804 8.12559 1.5718 8.12514C1.6955 8.12464 1.83278 8.10148 1.87684 8.07357C1.93079 8.03947 2.0431 8.06654 2.22075 8.15651C2.36585 8.22996 2.63945 8.33316 2.82877 8.38574C3.16632 8.47956 3.17028 8.48285 3.03083 8.55591C2.95259 8.59688 2.86278 8.67853 2.83128 8.7373C2.79979 8.79613 2.77443 8.94007 2.77488 9.05717C2.77538 9.17432 2.79956 9.30777 2.8286 9.35376C2.87479 9.42671 2.90713 9.42353 3.08338 9.3287C3.19446 9.26893 3.3237 9.1458 3.37066 9.05505C3.42104 8.95771 3.44416 8.81684 3.42701 8.71146C3.39803 8.53286 3.39803 8.53286 4.06279 8.49535C4.42842 8.4747 4.77183 8.44211 4.82589 8.42296C4.87995 8.40382 4.82366 8.47699 4.70079 8.5856C4.47746 8.78296 4.4774 8.78302 4.4774 9.20329C4.4774 9.43447 4.49829 9.64449 4.52376 9.67C4.54928 9.69545 4.6875 9.65119 4.83092 9.57166C4.97439 9.49207 5.1483 9.344 5.21739 9.24264C5.28647 9.14123 5.34304 8.985 5.34304 8.89542C5.34304 8.8059 5.3159 8.68188 5.28267 8.61987C5.24944 8.55786 5.2328 8.49664 5.24559 8.48386C5.25838 8.47102 5.40928 8.50886 5.58096 8.56786C5.75258 8.62691 6.17071 8.81712 6.51004 8.99064C6.84943 9.16411 7.34078 9.45797 7.60193 9.6436C7.86307 9.82924 8.19051 10.1026 8.32951 10.2511C8.46852 10.3996 8.58222 10.5568 8.58222 10.6005C8.58222 10.6441 8.55011 10.7063 8.51091 10.7389C8.45875 10.7821 8.31265 10.7402 7.96639 10.5827C7.70614 10.4643 7.21015 10.2713 6.86429 10.1537C6.36763 9.98495 6.24337 9.92239 6.27342 9.85625C6.29436 9.81015 6.32206 9.66883 6.33496 9.54219C6.35585 9.33719 6.33624 9.28969 6.15602 9.10963C6.04472 8.9984 5.93179 8.90737 5.9051 8.90737C5.87846 8.90737 5.82903 8.98645 5.7953 9.08312C5.76157 9.17979 5.73398 9.35253 5.73398 9.46701C5.73398 9.58388 5.77067 9.70555 5.81775 9.74457C5.86383 9.7828 5.9013 9.82979 5.90108 9.84905C5.9008 9.86836 5.49557 9.88845 5.00047 9.89376C4.50538 9.89906 4.03933 9.91876 3.96472 9.93746C3.82912 9.97145 3.82912 9.97145 3.95171 9.80574C4.04732 9.67653 4.06686 9.59421 4.0405 9.43201C4.02196 9.31759 3.98197 9.19922 3.95165 9.16891C3.91546 9.13274 3.82867 9.18175 3.69832 9.31201C3.58931 9.42096 3.50006 9.56457 3.50006 9.63104C3.50006 9.69752 3.52609 9.80049 3.55787 9.85988C3.61304 9.96285 3.59277 9.96782 3.11806 9.96782C2.84441 9.96782 2.54166 9.95208 2.44543 9.93283C2.27035 9.89783 2.27035 9.89783 2.41053 9.75779C2.4876 9.68077 2.55422 9.57718 2.55852 9.52768C2.56288 9.47811 2.56238 9.36437 2.55741 9.2749C2.55244 9.18543 2.49659 9.02843 2.43326 8.92607C2.36992 8.8237 2.29849 8.73993 2.27442 8.73993C2.25041 8.73993 2.16608 8.83414 2.08705 8.94923C2.00803 9.06437 1.92677 9.2264 1.90655 9.30939C1.88394 9.40193 1.90253 9.52606 1.95458 9.63032C2.00127 9.72386 2.01501 9.80038 1.98513 9.80038C1.95525 9.80038 1.85998 9.76382 1.77347 9.71906C1.67065 9.66593 1.60414 9.57769 1.58146 9.46433C1.56236 9.36889 1.47016 9.21429 1.37661 9.1208C1.21382 8.95816 1.18969 8.95174 0.817184 8.97278C0.427924 8.99477 0.427924 8.99477 0.454899 8.82549C0.469754 8.73239 0.521972 8.43016 0.570951 8.15389C0.619929 7.87761 0.758712 7.35018 0.879343 6.98181C0.999975 6.61344 1.11932 6.28007 1.14462 6.241C1.18131 6.18418 1.23135 6.18697 1.39409 6.25495C1.50607 6.30172 1.70025 6.33995 1.82563 6.33995C1.95101 6.33995 2.12727 6.30183 2.2174 6.25529C2.30749 6.20874 2.41935 6.09694 2.46593 6.00692C2.5125 5.91683 2.55065 5.80967 2.55065 5.7687C2.55065 5.72779 2.47766 5.65116 2.38847 5.59853C2.29922 5.54584 2.12274 5.50275 1.99625 5.50275C1.8034 5.50275 1.72471 5.54104 1.50841 5.73996L1.25056 5.97717L1.40582 5.67053C1.49121 5.50186 1.68528 5.16374 1.83702 4.91923C1.98882 4.67465 2.2718 4.27268 2.46587 4.02588C2.65994 3.77913 2.91919 3.48041 3.04194 3.36214L3.26522 3.14715L3.49124 3.37303C3.63946 3.52116 3.78947 3.61241 3.92713 3.63825C4.08395 3.66761 4.18616 3.65081 4.33136 3.57156C4.43825 3.51329 4.5347 3.43733 4.54576 3.40283C4.55676 3.36834 4.50108 3.26324 4.42206 3.16937C4.34298 3.07543 4.19744 2.97251 4.09859 2.94059C3.98276 2.90319 3.84012 2.90079 3.69709 2.93378C3.57512 2.96196 3.46644 2.97614 3.45561 2.96537C3.44483 2.95454 3.62075 2.79157 3.84666 2.6032C4.0725 2.41483 4.45763 2.12482 4.70247 1.95883C4.94725 1.79279 5.16321 1.65576 5.18226 1.65431C5.20136 1.65281 5.23347 1.77615 5.25369 1.92836ZM16.9079 3.25214C17.1406 3.4923 17.4318 3.8144 17.5551 3.96789C17.6783 4.12137 17.905 4.43532 18.0588 4.66555C18.2125 4.89578 18.3676 5.13941 18.4033 5.20689C18.4673 5.32789 18.4628 5.32951 18.0908 5.32315C17.8324 5.31874 17.6553 5.34687 17.5294 5.41245C17.4282 5.46508 17.2963 5.5886 17.2364 5.68688C17.1764 5.78511 17.1273 5.93213 17.1272 6.01356C17.127 6.12931 17.0886 6.17497 16.9511 6.22286C16.8544 6.25657 16.752 6.28414 16.7236 6.28414C16.6953 6.28414 16.7242 6.21795 16.7878 6.13707C16.8573 6.04878 16.9031 5.90941 16.9023 5.78824C16.9017 5.67728 16.8526 5.47976 16.7934 5.34927C16.7341 5.21878 16.6615 5.11206 16.6319 5.11206C16.6023 5.11206 16.5006 5.21749 16.4058 5.34631C16.2724 5.52759 16.2334 5.63838 16.2334 5.83618C16.2334 5.97683 16.2702 6.14438 16.3152 6.20857C16.3602 6.27275 16.3811 6.34113 16.3617 6.36055C16.3424 6.37992 16.1736 6.39387 15.9867 6.39153C15.7998 6.38918 15.4501 6.33225 15.2095 6.265L14.772 6.14265L14.9861 6.00323C15.1907 5.86995 15.2046 5.86816 15.2979 5.96232C15.3517 6.01652 15.4707 6.06089 15.5623 6.06089C15.667 6.06089 15.7958 6.00122 15.9085 5.90059L16.088 5.7403L15.9017 5.64402C15.7896 5.58614 15.6536 5.56002 15.5606 5.5786C15.4106 5.60863 15.4153 5.59646 15.7216 5.16542C15.9817 4.79951 16.0636 4.72137 16.1869 4.72137C16.2692 4.72137 16.4122 4.65774 16.5046 4.57999C16.5971 4.50224 16.7025 4.34865 16.7388 4.23864C16.7751 4.12863 16.793 3.91537 16.7785 3.76478C16.764 3.6142 16.7368 3.47567 16.718 3.45686C16.6992 3.43811 16.5427 3.4918 16.3702 3.57613C16.1788 3.66968 16.0147 3.79782 15.9496 3.90454C15.886 4.00891 15.8428 4.18199 15.8427 4.33346C15.8426 4.47311 15.8705 4.61549 15.9049 4.64981C15.9509 4.6958 15.9112 4.77947 15.7534 4.96795C15.6358 5.1086 15.5339 5.22369 15.527 5.22369C15.52 5.22369 15.5286 5.13617 15.546 5.02929C15.5633 4.92235 15.5457 4.75809 15.5069 4.66433C15.4659 4.56548 15.3376 4.43611 15.2016 4.35646C15.0726 4.28089 14.9252 4.21905 14.8742 4.21905C14.7983 4.21905 14.7813 4.2781 14.7813 4.54148C14.7813 4.75413 14.8138 4.91097 14.8765 5.00194C14.9288 5.07785 15.0105 5.17055 15.058 5.20795C15.1055 5.24534 15.2179 5.27677 15.3077 5.27771C15.471 5.2795 15.471 5.2795 15.3421 5.41658C15.2712 5.49198 15.1224 5.61645 15.0113 5.69308C14.9001 5.76977 14.7163 5.87112 14.6027 5.91834C14.3961 6.00418 14.3961 6.00418 14.4838 5.85114C14.5637 5.71172 14.5634 5.6789 14.4809 5.48199C14.4078 5.30746 14.3754 5.27827 14.3126 5.33035C14.2699 5.36579 14.2035 5.47049 14.1652 5.56292C14.1112 5.6933 14.1103 5.76346 14.1613 5.87525C14.1975 5.95462 14.2199 6.02595 14.211 6.03387C14.2021 6.0418 14.0652 6.06574 13.9065 6.08706C13.618 6.12585 13.618 6.12585 13.7327 5.89423C13.8338 5.68995 13.8394 5.63598 13.7795 5.43645C13.7422 5.31204 13.6161 5.10787 13.4994 4.98269L13.287 4.75513L13.1731 4.97805C13.1106 5.10067 13.0431 5.28798 13.0231 5.39431C13.0031 5.50063 13.0134 5.65741 13.0458 5.7427C13.0782 5.82798 13.171 5.95914 13.2521 6.03415C13.3887 6.16068 13.3917 6.1733 13.2945 6.20851C13.2369 6.22939 13.1205 6.29435 13.0361 6.35285C12.8825 6.45917 12.8825 6.45917 12.8825 6.26974C12.8825 6.14539 12.8393 6.03996 12.7569 5.96271C12.6877 5.89802 12.5604 5.81827 12.474 5.78556C12.3875 5.7528 12.2933 5.72601 12.2646 5.72601C12.2359 5.72601 12.2123 5.80214 12.2123 5.89523C12.2123 5.98833 12.2491 6.15237 12.294 6.25986C12.3445 6.38064 12.4389 6.48178 12.5413 6.52481C12.7068 6.59435 12.7068 6.59435 12.4177 6.98834C12.2587 7.205 12.0029 7.52883 11.8493 7.70794C11.6957 7.88704 11.4228 8.14228 11.2428 8.27511C11.0628 8.40795 10.855 8.51667 10.7809 8.51667C10.6925 8.51667 10.625 8.47013 10.5845 8.38127C10.5505 8.30676 10.5391 8.18068 10.5591 8.10103C10.5791 8.02144 10.8058 7.72915 11.0628 7.45159C11.4774 7.0038 11.56 6.87721 11.7962 6.3279C11.9425 5.98744 12.1232 5.59987 12.1978 5.46659C12.2723 5.3333 12.4602 5.11329 12.6155 4.97761C12.7707 4.84192 13.0136 4.66879 13.1553 4.59288C13.2971 4.51703 13.4696 4.43784 13.5387 4.41696C13.6448 4.38487 13.6644 4.39994 13.6644 4.51363C13.6644 4.58764 13.7173 4.69608 13.7819 4.75458C13.8593 4.82451 13.9819 4.8609 14.1403 4.8609C14.2727 4.8609 14.3976 4.84438 14.4178 4.82423C14.438 4.80408 14.4151 4.71138 14.3669 4.61834C14.3188 4.52524 14.2266 4.41211 14.162 4.36695C14.0478 4.28703 14.0512 4.28189 14.2881 4.17719C14.422 4.11797 14.6753 3.95248 14.8512 3.80943C15.0766 3.62586 15.2211 3.54929 15.3418 3.54929C15.4359 3.54929 15.5866 3.51117 15.6768 3.46462C15.7668 3.41807 15.88 3.30371 15.9283 3.21044C15.9765 3.11724 16.0306 2.91731 16.0485 2.76623C16.0811 2.49151 16.0811 2.49151 16.2829 2.65348C16.3939 2.74262 16.6751 3.01197 16.9079 3.25214ZM18.8448 6.08879C18.9678 6.36507 19.1313 6.79204 19.2082 7.03762C19.2851 7.2832 19.3647 7.56249 19.3852 7.65826C19.4224 7.8324 19.4224 7.8324 19.0348 7.80472C18.7024 7.78094 18.6147 7.79523 18.4187 7.90535C18.2736 7.98684 18.1499 8.11515 18.0798 8.25653C18.0192 8.37909 17.9825 8.50038 17.9984 8.52605C18.0143 8.55172 17.9613 8.59777 17.8806 8.62841C17.8 8.65905 17.7222 8.68411 17.7078 8.68411C17.6933 8.68411 17.7091 8.63265 17.7427 8.56975C17.7872 8.48665 17.787 8.40404 17.7418 8.26724C17.7077 8.16377 17.6459 8.05102 17.6045 8.0167C17.5464 7.96853 17.5026 7.98829 17.4119 8.10349C17.3473 8.18553 17.2945 8.3316 17.2945 8.42804C17.2945 8.52454 17.3324 8.65755 17.3787 8.72363C17.4556 8.8333 17.4537 8.84664 17.3575 8.87717C17.2995 8.89559 17.0165 9.06688 16.7288 9.25787L16.2055 9.60509V9.32351C16.2055 9.14078 16.1682 8.98511 16.0992 8.87991C15.9929 8.71782 15.9929 8.71783 15.8317 8.91027C15.7431 9.01609 15.6563 9.15925 15.6388 9.22829C15.6212 9.29739 15.6223 9.41493 15.641 9.4895C15.6598 9.56412 15.7127 9.66274 15.7588 9.70879C15.8048 9.75478 15.8425 9.80635 15.8425 9.82338C15.8425 9.8404 15.7227 9.91497 15.5762 9.98914C15.4299 10.0633 15.2099 10.149 15.0876 10.1797C14.9652 10.2104 14.7395 10.2503 14.5859 10.2684C14.3142 10.3003 14.3099 10.2986 14.4258 10.2043C14.4913 10.151 14.573 10.0525 14.6073 9.98546C14.6416 9.91837 14.6697 9.7996 14.6697 9.72146C14.6697 9.64332 14.6292 9.47839 14.5798 9.35499C14.5304 9.23159 14.4576 9.13062 14.4181 9.13062C14.3785 9.13062 14.2685 9.21897 14.1736 9.32697C14.0787 9.43497 13.9855 9.58567 13.9663 9.66185C13.9471 9.73804 13.9488 9.86948 13.9699 9.95387C13.9909 10.0383 14.0478 10.1513 14.0963 10.205C14.1798 10.2977 14.1317 10.3027 13.1564 10.3024C12.5911 10.3022 12.0371 10.2767 11.9254 10.2457C11.8045 10.2121 11.7112 10.1468 11.6949 10.0844C11.6797 10.0268 11.7059 9.90012 11.7529 9.80306C11.8 9.706 11.9414 9.55664 12.0672 9.47119C12.1931 9.38569 12.3816 9.28667 12.4859 9.25112C12.5904 9.21551 12.6822 9.18643 12.6901 9.18643C12.6979 9.18643 12.6913 9.28327 12.6755 9.40165C12.6596 9.52003 12.6754 9.67061 12.7106 9.73636C12.7457 9.80205 12.8732 9.90615 12.9939 9.96765C13.1145 10.0292 13.2393 10.0794 13.2712 10.0794C13.3034 10.0794 13.3293 9.95867 13.3293 9.80792C13.3293 9.6177 13.2946 9.49229 13.2135 9.38932C13.1499 9.30844 13.062 9.24225 13.0181 9.24225C12.9742 9.24225 12.9384 9.22249 12.9384 9.19838C12.9384 9.17427 13.2676 9.12314 13.67 9.0848C14.0724 9.04645 14.5687 8.97959 14.773 8.93611C14.9772 8.89269 15.2838 8.80875 15.4542 8.74958C15.6247 8.69048 15.876 8.58521 16.0127 8.51573C16.1495 8.44618 16.3995 8.29532 16.5685 8.1804C16.7374 8.06553 16.9984 7.86304 17.1484 7.73043C17.3754 7.52978 17.455 7.49161 17.6231 7.50238C17.7486 7.51047 17.895 7.47202 18.0099 7.40085C18.1116 7.3379 18.2278 7.20528 18.2681 7.10616C18.3085 7.00709 18.3584 6.83184 18.379 6.71669C18.4165 6.50739 18.4165 6.50739 18.2045 6.51164C18.088 6.51398 17.9046 6.54741 17.7971 6.58598C17.6896 6.62449 17.5451 6.7393 17.476 6.8411C17.4002 6.95278 17.3504 7.1104 17.3504 7.23838C17.3504 7.41336 17.3176 7.47548 17.1636 7.59291C17.0608 7.67121 16.9666 7.73529 16.9542 7.73534C16.9417 7.73534 16.9397 7.61601 16.9498 7.47023C16.9652 7.24631 16.9412 7.16817 16.7958 6.96785C16.7011 6.83736 16.6031 6.73065 16.578 6.73065C16.553 6.73065 16.4777 6.84015 16.4108 6.97399C16.344 7.10778 16.2892 7.28526 16.2892 7.36831C16.2892 7.45142 16.3173 7.57421 16.3516 7.6413C16.3859 7.70833 16.4676 7.80572 16.5331 7.85774C16.65 7.9505 16.6423 7.95692 16.1217 8.20038C15.8299 8.33684 15.4655 8.47465 15.3119 8.50668C15.1583 8.53878 14.9384 8.57762 14.8232 8.59314C14.7081 8.6086 14.6138 8.6125 14.6138 8.60179C14.6138 8.59107 14.7182 8.40125 14.8459 8.18001C15.0712 7.78943 15.0805 7.78111 15.167 7.89268C15.216 7.95586 15.3239 8.02407 15.4067 8.04416C15.4895 8.06431 15.6489 8.05058 15.7609 8.01363L15.9644 7.94648L15.7778 7.75315C15.6228 7.59257 15.5592 7.56344 15.4025 7.58135C15.2139 7.6029 15.2139 7.6029 15.4383 7.39365C15.5966 7.24614 15.6966 7.19328 15.7774 7.21438C15.8537 7.23431 15.9397 7.19663 16.0348 7.10164C16.1133 7.02317 16.1775 6.90758 16.1775 6.84479C16.1775 6.782 16.1562 6.73065 16.13 6.73065C16.1039 6.73065 16.0022 6.75867 15.9039 6.79288C15.7787 6.83647 15.7165 6.89943 15.6956 7.00374C15.6787 7.08863 15.5977 7.1915 15.5068 7.24368C15.3483 7.33455 15.3476 7.33427 15.3519 7.18391C15.3542 7.10086 15.3296 6.98371 15.2971 6.92365C15.2646 6.86354 15.1639 6.77106 15.0734 6.71815C14.9828 6.66523 14.8926 6.63805 14.8729 6.6577C14.8533 6.67735 14.8372 6.79667 14.8372 6.92287C14.8372 7.04906 14.8763 7.20813 14.9241 7.27633C14.972 7.34459 15.0474 7.40041 15.0917 7.40041C15.136 7.40041 15.1723 7.41788 15.1723 7.4392C15.1723 7.46057 15.1052 7.54798 15.0232 7.63348C14.8742 7.78898 14.8742 7.78898 14.7737 7.56467C14.7029 7.4066 14.6155 7.3163 14.4778 7.25875C14.3702 7.21388 14.1956 7.17715 14.0896 7.17715C13.8968 7.17715 13.8968 7.17715 13.9508 7.38645C13.9804 7.5016 14.0341 7.65441 14.07 7.72608C14.1058 7.7978 14.2039 7.89196 14.2879 7.93538C14.372 7.9788 14.5065 8.01435 14.5869 8.01435C14.7331 8.01435 14.7331 8.01435 14.6137 8.18191C14.5481 8.27411 14.4144 8.40907 14.3167 8.48185C14.1812 8.58287 14.0353 8.62317 13.7011 8.65197L13.2632 8.6897L13.4604 8.51667C13.5688 8.42151 13.6867 8.25536 13.7224 8.14747C13.7581 8.03925 13.7708 7.85903 13.7507 7.74561C13.7306 7.63248 13.6744 7.43323 13.6259 7.30273C13.5773 7.17224 13.5221 7.06625 13.5032 7.06709C13.4843 7.06793 13.3721 7.14182 13.2538 7.23129C13.1356 7.32076 12.9788 7.47525 12.9055 7.57454C12.8321 7.67389 12.7568 7.83698 12.738 7.93694C12.7193 8.0369 12.7336 8.20847 12.7698 8.3182C12.806 8.42793 12.8724 8.5544 12.9173 8.59928C12.9888 8.67077 12.9832 8.684 12.8709 8.70694C12.8005 8.72129 12.5613 8.77481 12.3393 8.82588C12.1172 8.877 11.7471 9.01514 11.5167 9.13291C11.2863 9.25068 11.0852 9.3268 11.07 9.30213C11.0547 9.27741 11.3002 9.00895 11.6155 8.70555C11.9308 8.40214 12.3119 7.96981 12.4623 7.74478C12.6127 7.51979 12.8794 7.18675 13.0549 7.00475C13.2551 6.79701 13.4955 6.61712 13.7006 6.52157C13.9377 6.41106 14.1117 6.3702 14.3346 6.37277C14.5035 6.37467 14.8679 6.42099 15.1444 6.47569C15.5763 6.56109 15.7125 6.566 16.1128 6.51052C16.3689 6.47502 16.7058 6.39588 16.8612 6.33465C17.0875 6.24552 17.1773 6.23491 17.3113 6.28163C17.4034 6.31372 17.5592 6.33995 17.6576 6.33995C17.756 6.33995 17.9218 6.28275 18.0262 6.21287C18.1306 6.14299 18.2914 5.95685 18.3835 5.79923C18.4757 5.64162 18.5668 5.52927 18.5862 5.54953C18.6054 5.56984 18.7218 5.81252 18.8448 6.08879ZM3.25986 7.0163C3.04859 7.23537 3.00212 7.31317 3.06071 7.34984C3.1027 7.37613 3.26494 7.42647 3.42126 7.46169C3.66314 7.51622 3.73524 7.5117 3.9049 7.43122C4.01666 7.37825 4.14103 7.26087 4.18789 7.16415C4.23385 7.06927 4.25987 6.96144 4.24569 6.92454C4.23156 6.88759 4.15734 6.82888 4.08077 6.794C4.0042 6.75917 3.85017 6.73065 3.73848 6.73065C3.56725 6.73065 3.49213 6.77547 3.25986 7.0163ZM19.5365 8.38853C19.5642 8.53576 19.6105 8.94326 19.6393 9.2941C19.6726 9.69813 19.6719 10.193 19.6375 10.6438C19.6078 11.0353 19.5438 11.5645 19.4955 11.8198C19.4472 12.0752 19.3198 12.5563 19.2123 12.8891C19.017 13.4941 19.017 13.4941 18.6444 13.6705C18.2841 13.841 18.2479 13.8467 17.5458 13.8437C16.94 13.8412 16.7227 13.8152 16.2334 13.6872C15.9109 13.6028 15.303 13.4222 14.8825 13.2857C14.4621 13.1492 14.0223 13.0377 13.9052 13.0379C13.7881 13.0381 13.5945 13.0653 13.475 13.0985C13.3554 13.1317 13.0885 13.2712 12.8818 13.4085C12.596 13.5985 12.4515 13.659 12.2786 13.6614C12.1355 13.6634 11.9755 13.6178 11.8472 13.5385C11.735 13.4693 11.5723 13.3147 11.4855 13.1951C11.3988 13.0755 11.311 12.8773 11.2902 12.7548C11.2689 12.6288 11.2828 12.4062 11.3221 12.2424C11.377 12.0137 11.4537 11.8908 11.6874 11.6573C11.8501 11.4947 12.0913 11.3157 12.2234 11.2595C12.3555 11.2034 12.6396 11.116 12.8546 11.0654C13.0696 11.0149 13.6066 10.9095 14.0479 10.8313C14.4891 10.753 15.0043 10.6265 15.1928 10.5501C15.3812 10.4737 15.6636 10.3261 15.8205 10.2222C15.9773 10.1182 16.2775 9.88064 16.4876 9.69428C16.8696 9.35538 16.8696 9.35538 16.9348 9.50814C16.9706 9.59214 17.0564 9.71108 17.1254 9.77247C17.2213 9.85787 17.3227 9.88237 17.5565 9.87668C17.7246 9.8726 17.8874 9.84408 17.9182 9.81333C17.9556 9.77593 17.9467 9.70433 17.8914 9.59739C17.8458 9.50937 17.7556 9.38948 17.691 9.33099C17.6263 9.2725 17.4844 9.20976 17.3758 9.19157C17.1781 9.15853 17.1781 9.15853 17.5641 8.92082C17.9362 8.6917 17.9559 8.68618 18.1109 8.767C18.1995 8.81315 18.3854 8.851 18.5242 8.85122C18.6991 8.85144 18.8371 8.81036 18.9744 8.7171C19.0833 8.64315 19.2329 8.46867 19.3069 8.32942C19.3808 8.19011 19.4513 8.08619 19.4636 8.09846C19.476 8.11074 19.5087 8.24129 19.5365 8.38853ZM0.896712 9.70991C1.00171 9.75964 1.13401 9.80021 1.19081 9.80005C1.2476 9.79982 1.35908 9.76578 1.43855 9.72436C1.55281 9.66475 1.60241 9.66319 1.6759 9.71688C1.727 9.75422 1.76878 9.80083 1.76878 9.82047C1.76878 9.84012 1.72287 9.85619 1.6668 9.85619C1.61073 9.85619 1.51042 9.91413 1.44385 9.98496C1.3736 10.0596 1.30775 10.2236 1.28687 10.3756C1.25894 10.5792 1.26821 10.6373 1.32836 10.6364C1.37092 10.6357 1.51277 10.5866 1.64351 10.5273C1.79776 10.4573 1.90192 10.3652 1.94001 10.265C1.97234 10.1801 1.98642 10.0635 1.97134 10.0058C1.95073 9.92719 1.96743 9.90838 2.03785 9.93065C2.08951 9.94695 2.27001 10.0011 2.43895 10.0509C2.64626 10.112 3.12733 10.157 3.91892 10.1895C4.61015 10.2178 5.27452 10.2757 5.53689 10.3307C5.78173 10.382 6.18384 10.4876 6.43046 10.5652C6.67708 10.643 7.05478 10.7945 7.2698 10.9019C7.48481 11.0092 7.81281 11.2049 7.99867 11.3366C8.18453 11.4684 8.42848 11.6778 8.54079 11.802C8.65304 11.9263 8.79629 12.1285 8.85906 12.2514C8.92787 12.3863 8.97266 12.5811 8.97193 12.7423C8.97126 12.8894 8.92374 13.113 8.86632 13.2394C8.80891 13.3657 8.6775 13.5325 8.57435 13.6099C8.47114 13.6874 8.25942 13.7774 8.10383 13.81C7.92702 13.847 7.69659 13.8515 7.4895 13.8222C7.30722 13.7964 7.05758 13.7486 6.93471 13.716C6.81185 13.6835 6.39717 13.6167 6.01322 13.5676C5.62927 13.5185 5.15177 13.4409 4.95211 13.395C4.75245 13.3493 4.22469 13.2002 3.7793 13.0638C3.33392 12.9273 2.85396 12.8 2.71272 12.7807C2.54199 12.7574 2.34652 12.7774 2.12967 12.8404C1.95017 12.8926 1.6291 13.0229 1.4161 13.1301C1.20309 13.2373 1.00992 13.3043 0.986795 13.2789C0.963673 13.2536 0.904084 13.1073 0.854323 12.9538C0.804619 12.8003 0.701132 12.3985 0.624453 12.0608C0.547774 11.7232 0.456239 11.1068 0.421055 10.6911C0.385703 10.2735 0.375371 9.76455 0.39799 9.55363L0.43887 9.17187L0.572403 9.39562C0.646736 9.52025 0.790433 9.65951 0.896712 9.70991ZM3.08802 13.1769C3.39144 13.2536 3.99778 13.4207 4.43552 13.5482C4.87325 13.6758 5.23135 13.7997 5.23135 13.8237C5.23135 13.8476 5.03661 13.9108 4.79853 13.9641C4.38682 14.0564 4.33845 14.0563 3.80723 13.9629C3.50006 13.9089 3.0711 13.8375 2.85401 13.8043C2.45923 13.7438 2.45923 13.7438 2.18602 13.9317C2.03573 14.0351 1.82127 14.2022 1.70947 14.3031L1.50618 14.4866L1.30239 14.0526C1.1903 13.8139 1.0986 13.6033 1.0986 13.5846C1.0986 13.5658 1.21795 13.4805 1.36388 13.395C1.50981 13.3095 1.74225 13.1953 1.88047 13.1412C2.0187 13.0871 2.22282 13.0416 2.33407 13.0402C2.44532 13.0387 2.7846 13.1003 3.08802 13.1769ZM14.8786 13.7265C15.0376 13.7676 15.2574 13.8619 15.3671 13.9358C15.4768 14.0097 15.6443 14.1901 15.7393 14.3368C15.8342 14.4835 16.0026 14.6781 16.1133 14.7693C16.2241 14.8606 16.2961 14.9352 16.2733 14.9352C16.2506 14.9352 15.8113 14.7828 15.2972 14.5966C14.6957 14.3787 14.1553 14.2231 13.7812 14.1601C13.2 14.0622 13.2 14.0622 13.3948 13.9418C13.502 13.8756 13.6756 13.7842 13.7807 13.7387C13.8857 13.6931 14.1106 13.6549 14.2805 13.6537C14.4504 13.6525 14.7196 13.6852 14.8786 13.7265ZM18.7818 14.0277C18.7049 14.1793 18.5479 14.3859 18.4329 14.4869C18.3179 14.5878 18.0712 14.7425 17.8848 14.8307C17.6983 14.9188 17.4776 14.991 17.3944 14.991C17.311 14.991 17.1033 14.9388 16.9328 14.8751C16.7055 14.7901 16.5669 14.6907 16.4141 14.5031C16.2993 14.3623 16.1175 14.1461 16.01 14.0227C15.8652 13.8565 15.8435 13.8095 15.9262 13.8413C15.9877 13.865 16.2264 13.9344 16.4568 13.9958C16.7233 14.0666 17.0584 14.1079 17.3783 14.1091C17.7446 14.1104 17.9793 14.0786 18.2439 13.9919C18.4436 13.9264 18.6697 13.8376 18.7464 13.7947C18.8232 13.7516 18.894 13.7244 18.9038 13.7342C18.9136 13.744 18.8587 13.8761 18.7818 14.0277ZM3.16498 14.1852C3.4875 14.2627 4.00794 14.3411 4.32153 14.3595C4.73737 14.3838 5.05889 14.366 5.50958 14.2935C6.04064 14.2081 6.20668 14.2032 6.69082 14.2582C7.01106 14.2946 7.32308 14.3629 7.41383 14.4165C7.50162 14.4683 7.58601 14.5434 7.60131 14.5833C7.61667 14.6233 7.5735 14.6918 7.50537 14.7357C7.43723 14.7796 7.15531 14.8794 6.87886 14.9574C6.60242 15.0354 6.20573 15.1258 5.9973 15.1581C5.69656 15.2049 5.51422 15.199 5.11329 15.1294C4.83544 15.0813 4.32946 14.9425 3.98884 14.8211C3.5892 14.6786 3.27293 14.6003 3.09695 14.6003C2.947 14.6003 2.74394 14.6408 2.64559 14.6903C2.5473 14.7398 2.34831 14.8787 2.20344 14.9991L1.93995 15.2178L1.79854 14.9939C1.72075 14.8707 1.65708 14.7443 1.65708 14.7129C1.65708 14.6815 1.7609 14.5617 1.88779 14.4467C2.01473 14.3316 2.18434 14.1937 2.26476 14.1403C2.34524 14.0867 2.44873 14.0432 2.4948 14.0436C2.54087 14.0439 2.84245 14.1077 3.16498 14.1852ZM14.7009 14.9151C14.9719 15.0809 15.1066 15.1246 15.4362 15.1536C15.7448 15.1808 15.8595 15.2151 15.9241 15.2994C15.9705 15.36 16.038 15.5041 16.0742 15.6196C16.1102 15.7351 16.1671 15.8513 16.2006 15.878C16.234 15.9046 16.4121 15.9809 16.5964 16.0475C16.7807 16.114 16.9919 16.2142 17.0656 16.2701C17.1997 16.3717 17.1997 16.3717 17.0475 16.5712C16.9637 16.6808 16.7632 16.8833 16.6019 17.021C16.3086 17.2714 16.3086 17.2714 16.2186 17.1192C16.1691 17.0354 15.9698 16.8049 15.7756 16.6069C15.5426 16.3691 15.2682 16.1644 14.9681 16.0042C14.5259 15.7681 14.509 15.7514 14.3403 15.3858C14.245 15.1791 14.167 14.943 14.167 14.861C14.167 14.7544 14.1958 14.712 14.268 14.712C14.3236 14.712 14.5184 14.8033 14.7009 14.9151ZM3.53218 15.0823C3.71418 15.2245 4.00956 15.4108 4.18856 15.4962C4.36755 15.5816 4.63986 15.6688 4.79372 15.69C5.07341 15.7284 5.07341 15.7284 4.91503 15.8949C4.8279 15.9865 4.65031 16.1241 4.5204 16.2007C4.34778 16.3024 4.15974 16.3512 3.82231 16.3821C3.56825 16.4054 3.28298 16.4645 3.18832 16.5136C3.0162 16.6028 3.0162 16.6028 2.68396 16.2016C2.50128 15.9809 2.28342 15.7078 2.19987 15.5948C2.11637 15.4817 2.04802 15.3792 2.04802 15.367C2.04802 15.3548 2.16044 15.2641 2.29788 15.1655C2.43527 15.0669 2.64263 14.9514 2.75863 14.9088C2.87462 14.8663 3.02167 14.8297 3.08539 14.8275C3.14917 14.8254 3.35022 14.94 3.53218 15.0823ZM13.5245 14.9909C13.6178 15.0485 13.751 15.1726 13.8206 15.2667C13.8903 15.3609 13.9931 15.621 14.049 15.8448C14.105 16.0686 14.1787 16.3039 14.2129 16.3677C14.247 16.4315 14.4263 16.6147 14.6111 16.7747C14.8508 16.9822 14.9625 17.1243 15.0008 17.2702C15.0303 17.3827 15.0603 17.6338 15.0674 17.8283C15.08 18.1699 15.0744 18.1858 14.9049 18.2931C14.7293 18.4042 14.7293 18.4042 14.3899 18.2234C14.2032 18.1239 13.935 17.941 13.7939 17.817C13.6528 17.6928 13.5032 17.5094 13.4613 17.4092C13.4194 17.3091 13.3851 17.1372 13.3851 17.0272C13.3851 16.9173 13.3462 16.7522 13.2987 16.6602C13.2512 16.5684 13.0724 16.3284 12.9015 16.1271C12.7306 15.9257 12.556 15.6945 12.5136 15.6132C12.4711 15.5319 12.4363 15.4234 12.4361 15.3721C12.4359 15.3207 12.5006 15.2016 12.58 15.1073C12.6593 15.0131 12.8038 14.9144 12.9011 14.888C12.9984 14.8617 13.1404 14.8505 13.2166 14.8632C13.2928 14.8759 13.4314 14.9334 13.5245 14.9909ZM18.0719 15.2797C17.941 15.474 17.7222 15.7763 17.5856 15.9516C17.3373 16.2704 17.3373 16.2704 17.1623 16.1414C17.0661 16.0705 16.8875 15.974 16.7656 15.9271C16.6435 15.8803 16.5189 15.8025 16.4884 15.7543C16.4525 15.6973 16.452 15.6131 16.4871 15.5135C16.5384 15.3675 16.559 15.36 16.9317 15.3524C17.2627 15.3455 17.395 15.3099 17.7971 15.1194C18.0582 14.9958 18.2804 14.9018 18.2908 14.9106C18.3012 14.9194 18.2027 15.0855 18.0719 15.2797ZM8.71989 15.5048C8.69744 15.6376 8.62445 15.7863 8.54615 15.8588C8.47181 15.9276 8.33018 15.9987 8.23133 16.0169C8.13254 16.035 7.76914 16.0866 7.42377 16.1316C7.07846 16.1766 6.68892 16.2617 6.55813 16.3209C6.42739 16.38 6.05784 16.6591 5.73694 16.941C5.41604 17.223 4.99444 17.5425 4.80009 17.6511L4.44669 17.8487L4.1828 17.6363C4.03766 17.5195 3.76188 17.2879 3.56987 17.1216C3.37792 16.9553 3.22082 16.7989 3.22082 16.774C3.22082 16.7491 3.26947 16.7133 3.32895 16.6944C3.38842 16.6756 3.63348 16.6503 3.87346 16.6382C4.1135 16.6261 4.43736 16.5774 4.59323 16.53C4.7491 16.4825 5.03811 16.339 5.23548 16.211C5.43285 16.0831 5.69489 15.9343 5.81775 15.8803C5.94062 15.8263 6.33016 15.7523 6.6834 15.7158C7.03663 15.6793 7.43193 15.6135 7.56183 15.5695C7.69173 15.5257 7.99331 15.4072 8.232 15.3064C8.58306 15.1581 8.67482 15.1377 8.71229 15.1995C8.73776 15.2416 8.74117 15.3789 8.71989 15.5048ZM9.93643 15.3819C9.9911 15.4912 10.0336 15.6999 10.0329 15.8561C10.0323 16.0096 9.98451 16.2393 9.92671 16.3665C9.86896 16.4937 9.6688 16.79 9.48194 17.025C9.24793 17.3193 9.11379 17.55 9.05079 17.7667C8.97908 18.0131 8.96478 18.2432 8.98466 18.8289C9.01002 19.5766 9.01002 19.5766 8.81008 19.5423C8.70012 19.5235 8.54609 19.4955 8.46785 19.4801C8.32622 19.4523 8.32555 19.4494 8.32823 18.882C8.33085 18.3266 8.32538 18.3013 8.11517 17.8979C7.92936 17.5415 7.90406 17.4503 7.93271 17.2412C7.95103 17.1076 8.00331 16.9263 8.04888 16.8383C8.09439 16.7503 8.25155 16.608 8.39804 16.5223C8.54453 16.4364 8.78624 16.2523 8.93518 16.1131C9.08407 15.9739 9.27094 15.7461 9.3503 15.6069C9.42972 15.4677 9.53287 15.3089 9.57956 15.2541C9.62619 15.1992 9.70365 15.1616 9.75157 15.1705C9.79954 15.1794 9.88276 15.2746 9.93643 15.3819ZM11.6835 15.9407C11.8114 16.0025 11.9449 16.1167 11.9803 16.1945C12.0158 16.2722 12.0448 16.4373 12.0448 16.5613C12.0448 16.738 11.9844 16.8788 11.7656 17.2119C11.604 17.4578 11.4863 17.7006 11.4863 17.7881C11.4863 17.8831 11.5743 18.0466 11.7237 18.229C11.8542 18.3884 12.0224 18.5937 12.0974 18.6852C12.1969 18.8064 12.2347 18.9216 12.237 19.1106C12.2403 19.3698 12.2403 19.3698 11.8773 19.4361C11.6776 19.4726 11.4125 19.5178 11.2883 19.5367C11.0623 19.5711 11.0623 19.5711 11.0605 19.0811C11.0587 18.636 11.0403 18.5526 10.8585 18.1724C10.7485 17.9422 10.635 17.6242 10.6062 17.4658C10.5761 17.2996 10.5737 17.0337 10.6006 16.837C10.6263 16.6495 10.6971 16.3984 10.7581 16.279C10.819 16.1597 10.9358 16.0094 11.0176 15.9452C11.0993 15.8809 11.2304 15.8282 11.3087 15.8282C11.387 15.8282 11.5556 15.8788 11.6835 15.9407ZM15.0501 16.2414C15.1335 16.2845 15.3308 16.4561 15.4885 16.6228C15.6462 16.7894 15.8398 17.0532 15.9188 17.2089C16.0623 17.4919 16.0623 17.4919 15.7571 17.7222C15.5892 17.8489 15.414 17.967 15.3679 17.9847C15.2972 18.0118 15.284 17.9407 15.284 17.5341C15.284 17.0513 15.284 17.0513 15.0405 16.7886C14.9066 16.6441 14.7683 16.471 14.7333 16.404C14.6983 16.3369 14.6697 16.2553 14.6697 16.2226C14.6697 16.1899 14.7211 16.1631 14.7841 16.1631C14.8471 16.1631 14.9668 16.1984 15.0501 16.2414ZM7.52111 16.5806C7.52111 16.5953 7.41433 16.6615 7.28376 16.7278C7.15319 16.794 6.9394 16.9214 6.80866 17.0109C6.64587 17.1224 6.42795 17.3883 6.11754 17.8544C5.86824 18.2288 5.65769 18.5427 5.64976 18.5519C5.64178 18.5612 5.41872 18.4409 5.15406 18.2847C4.88939 18.1285 4.67315 17.9828 4.67343 17.9609C4.67376 17.9391 4.82768 17.8497 5.01555 17.7624C5.24855 17.654 5.46513 17.4895 5.69746 17.2443C5.90973 17.0203 6.16278 16.8227 6.36959 16.7194C6.64687 16.5809 6.7684 16.5538 7.11119 16.5538C7.33665 16.5538 7.52111 16.5659 7.52111 16.5806ZM12.9116 17.1751C12.9656 17.3399 13.0789 17.6129 13.1634 17.7817C13.2479 17.9505 13.3638 18.1307 13.4209 18.1821C13.478 18.2336 13.673 18.3648 13.8542 18.4738L14.1837 18.6719L13.8131 18.8381C13.6092 18.9295 13.2397 19.0682 12.992 19.1464C12.7443 19.2247 12.5337 19.2886 12.5239 19.2886C12.5141 19.2886 12.4936 19.1775 12.4782 19.0417C12.4566 18.8494 12.3746 18.6943 12.108 18.3406C11.9108 18.0791 11.7656 17.8299 11.7656 17.753C11.7656 17.6796 11.795 17.5549 11.831 17.4759C11.867 17.397 11.9797 17.281 12.0814 17.2182C12.1831 17.1554 12.3171 17.0396 12.379 16.9609C12.4409 16.8822 12.4923 16.7521 12.4932 16.6718C12.4949 16.5259 12.4949 16.5259 12.6541 16.7007C12.7417 16.7969 12.8575 17.0103 12.9116 17.1751ZM10.1145 17.5509C10.1607 17.777 10.2869 18.1412 10.3948 18.3602C10.5028 18.5792 10.6334 18.9302 10.685 19.1401C10.7653 19.4671 10.7674 19.529 10.6998 19.5718C10.6562 19.5993 10.3442 19.6218 10.0063 19.6218C9.66847 19.6218 9.35991 19.6015 9.32065 19.5766C9.26899 19.5438 9.24911 19.3365 9.24843 18.8247C9.24771 18.2651 9.26837 18.0709 9.34768 17.8915C9.4028 17.7669 9.57353 17.5342 9.72711 17.3745C9.88069 17.2147 10.0118 17.0966 10.0184 17.1119C10.0251 17.1273 10.0683 17.3248 10.1145 17.5509ZM7.45348 17.3491C7.48526 17.3875 7.5625 17.554 7.62521 17.7191C7.68788 17.8841 7.80806 18.1185 7.89217 18.2398C8.00431 18.4016 8.05156 18.5482 8.06898 18.7888C8.08205 18.9694 8.0763 19.1827 8.05619 19.2627C8.02341 19.393 8.0009 19.4043 7.84017 19.3702C7.74149 19.3493 7.42198 19.2566 7.13018 19.1641C6.83837 19.0716 6.4318 18.9212 6.22673 18.8297L5.85383 18.6634L6.07962 18.2923C6.20383 18.0882 6.38902 17.8183 6.49111 17.6926C6.59326 17.5668 6.76002 17.423 6.86161 17.3729C6.96325 17.3228 7.12499 17.2813 7.2211 17.2807C7.31716 17.2799 7.4217 17.3108 7.45348 17.3491Z" fill="#6D6E76"/>
</svg>
